<svg width="112" height="50" viewBox="0 0 112 50" fill="none" xmlns="http://www.w3.org/2000/svg">
<ellipse cx="45" cy="25" rx="40" ry="25" fill="#FFC107"/>
<path d="M11.0586 27.5039L7.54297 20.502L7.41602 22.8555C7.37695 23.5391 7.34115 24.2194 7.30859 24.8965C7.28255 25.5671 7.23047 26.2083 7.15234 26.8203C7.07422 27.4258 6.95052 27.9889 6.78125 28.5098C6.61849 29.0306 6.3776 29.4831 6.05859 29.8672C5.74609 30.2448 5.33594 30.541 4.82812 30.7559C4.32682 30.9707 3.69857 31.0781 2.94336 31.0781C2.61133 31.0781 2.29232 31.0521 1.98633 31C1.68034 30.9414 1.41016 30.8633 1.17578 30.7656C0.941406 30.668 0.755859 30.554 0.619141 30.4238C0.475911 30.2871 0.404297 30.1406 0.404297 29.9844C0.404297 29.8672 0.420573 29.75 0.453125 29.6328C0.485677 29.5091 0.534505 29.3984 0.599609 29.3008C0.664714 29.1966 0.746094 29.1152 0.84375 29.0566C0.934896 28.9915 1.03906 28.959 1.15625 28.959C1.22786 28.959 1.28971 28.9948 1.3418 29.0664C1.40039 29.138 1.45898 29.2292 1.51758 29.3398C1.57617 29.444 1.64128 29.5579 1.71289 29.6816C1.79102 29.8053 1.88867 29.9225 2.00586 30.0332C2.12956 30.1374 2.27604 30.2253 2.44531 30.2969C2.61458 30.3685 2.82617 30.4043 3.08008 30.4043C3.58138 30.4043 4.0013 30.3197 4.33984 30.1504C4.6849 29.9746 4.9681 29.724 5.18945 29.3984C5.41081 29.0729 5.58008 28.679 5.69727 28.2168C5.81445 27.7546 5.90234 27.2305 5.96094 26.6445C5.98698 26.319 6.01302 26.0065 6.03906 25.707C6.0651 25.401 6.09115 25.0983 6.11719 24.7988C6.14323 24.4993 6.16602 24.1966 6.18555 23.8906C6.21159 23.5781 6.23763 23.2493 6.26367 22.9043C6.29622 22.403 6.32552 21.9277 6.35156 21.4785C6.3776 21.0228 6.39714 20.5996 6.41016 20.209C6.42969 19.8184 6.44271 19.4668 6.44922 19.1543C6.46224 18.8418 6.47201 18.5716 6.47852 18.3438C6.36784 18.1159 6.27018 17.9336 6.18555 17.7969C6.10091 17.6536 6.01302 17.5462 5.92188 17.4746C5.83073 17.3965 5.72982 17.3444 5.61914 17.3184C5.50846 17.2923 5.375 17.2793 5.21875 17.2793C5.08854 17.2793 4.92578 17.3053 4.73047 17.3574C4.54167 17.403 4.3431 17.4714 4.13477 17.5625C3.93294 17.6536 3.72786 17.7676 3.51953 17.9043C3.31771 18.0345 3.13542 18.1875 2.97266 18.3633C2.81641 18.5326 2.6862 18.7214 2.58203 18.9297C2.48438 19.138 2.43555 19.3626 2.43555 19.6035C2.43555 19.8118 2.46159 19.9779 2.51367 20.1016C2.57227 20.2253 2.63737 20.3197 2.70898 20.3848C2.78711 20.4434 2.86198 20.4824 2.93359 20.502C3.01172 20.515 3.06706 20.5215 3.09961 20.5215C3.26237 20.5215 3.39583 20.4954 3.5 20.4434C3.60417 20.3848 3.69857 20.3262 3.7832 20.2676C3.86784 20.2025 3.94596 20.1439 4.01758 20.0918C4.0957 20.0332 4.18359 20.0039 4.28125 20.0039C4.35938 20.0039 4.44076 20.0234 4.52539 20.0625C4.61654 20.0951 4.69792 20.1504 4.76953 20.2285C4.84766 20.3066 4.91276 20.4108 4.96484 20.541C5.01693 20.6647 5.04297 20.8177 5.04297 21C5.04297 21.2604 4.99089 21.485 4.88672 21.6738C4.78906 21.8626 4.65885 22.0221 4.49609 22.1523C4.33984 22.276 4.15755 22.3704 3.94922 22.4355C3.7474 22.4941 3.54557 22.5234 3.34375 22.5234C3.03125 22.5234 2.74805 22.4714 2.49414 22.3672C2.24674 22.2565 2.03516 22.1068 1.85938 21.918C1.68359 21.7292 1.55013 21.5078 1.45898 21.2539C1.36784 21 1.32227 20.7298 1.32227 20.4434C1.32227 19.7663 1.47852 19.1771 1.79102 18.6758C2.10352 18.168 2.51367 17.7448 3.02148 17.4062C3.5293 17.0677 4.10221 16.8171 4.74023 16.6543C5.38477 16.485 6.03906 16.4004 6.70312 16.4004C7.23698 16.4004 7.68294 16.4557 8.04102 16.5664C8.39909 16.6706 8.69857 16.8138 8.93945 16.9961C9.18034 17.1719 9.37891 17.3802 9.53516 17.6211C9.69141 17.862 9.83464 18.1159 9.96484 18.3828L12.543 23.6172C13.2135 22.2956 13.8223 21.1139 14.3691 20.0723C14.9225 19.0241 15.4336 18.1029 15.9023 17.3086C16.3711 16.5143 16.8073 15.8372 17.2109 15.2773C17.6211 14.7174 18.015 14.2617 18.3926 13.9102C18.7767 13.5521 19.1543 13.2917 19.5254 13.1289C19.903 12.9661 20.2936 12.8848 20.6973 12.8848C21.0423 12.8848 21.3223 12.9596 21.5371 13.1094C21.752 13.2526 21.8594 13.4707 21.8594 13.7637C21.8594 14.0241 21.8171 14.2389 21.7324 14.4082C21.6478 14.5775 21.5306 14.6621 21.3809 14.6621C21.2572 14.6621 21.1628 14.6165 21.0977 14.5254C21.0326 14.4277 20.9674 14.3236 20.9023 14.2129C20.8438 14.1022 20.7689 14.0013 20.6777 13.9102C20.5866 13.8125 20.4531 13.7637 20.2773 13.7637C20.1732 13.7637 20.0462 13.793 19.8965 13.8516C19.7467 13.9102 19.5905 13.998 19.4277 14.1152C19.2715 14.2324 19.1152 14.3789 18.959 14.5547C18.8027 14.7305 18.666 14.9355 18.5488 15.1699C18.4316 15.4043 18.3405 15.6712 18.2754 15.9707C18.2103 16.2702 18.1908 16.599 18.2168 16.957C18.2428 17.3672 18.2786 17.849 18.3242 18.4023C18.3698 18.9492 18.4186 19.5384 18.4707 20.1699C18.5293 20.7949 18.5879 21.4427 18.6465 22.1133C18.7116 22.7839 18.7767 23.4447 18.8418 24.0957C18.9069 24.7467 18.9688 25.3717 19.0273 25.9707C19.0924 26.5697 19.151 27.1133 19.2031 27.6016C19.2552 28.0833 19.304 28.4935 19.3496 28.832C19.3952 29.1641 19.431 29.3919 19.457 29.5156C19.4961 29.7044 19.5482 29.8574 19.6133 29.9746C19.6784 30.0853 19.7956 30.1406 19.9648 30.1406C20.1406 30.1406 20.3066 30.1113 20.4629 30.0527C20.6191 29.9876 20.7591 29.9225 20.8828 29.8574L21.0391 30.2188C20.9219 30.3034 20.7721 30.401 20.5898 30.5117C20.4141 30.6159 20.209 30.7168 19.9746 30.8145C19.7467 30.9121 19.4928 30.9935 19.2129 31.0586C18.9395 31.1237 18.6432 31.1562 18.3242 31.1562C17.875 31.1562 17.5202 31.1009 17.2598 30.9902C16.9993 30.873 16.7975 30.7331 16.6543 30.5703C16.5176 30.401 16.4232 30.2253 16.3711 30.043C16.3255 29.8542 16.2897 29.6849 16.2637 29.5352C16.2051 29.2031 16.1432 28.8027 16.0781 28.334C16.013 27.8652 15.9479 27.3639 15.8828 26.8301C15.8242 26.2897 15.7656 25.7363 15.707 25.1699C15.6484 24.597 15.5931 24.0404 15.541 23.5C15.4954 22.9531 15.4531 22.4388 15.4141 21.957C15.375 21.4753 15.3424 21.0553 15.3164 20.6973C15.1211 21.0163 14.9388 21.3255 14.7695 21.625C14.6068 21.918 14.4473 22.2207 14.291 22.5332C14.1348 22.8392 13.9753 23.1615 13.8125 23.5C13.6497 23.8385 13.4772 24.2064 13.2949 24.6035C13.1191 25.0007 12.9238 25.4368 12.709 25.9121C12.5007 26.3874 12.2695 26.918 12.0156 27.5039H11.0586ZM25.3945 30.1211C25.3945 30.2057 25.3783 30.3099 25.3457 30.4336C25.3197 30.5508 25.2513 30.6647 25.1406 30.7754C25.0365 30.8796 24.8835 30.9674 24.6816 31.0391C24.4798 31.1172 24.2064 31.1562 23.8613 31.1562C23.5163 31.1562 23.2461 31.1139 23.0508 31.0293C22.8555 30.9512 22.709 30.8568 22.6113 30.7461C22.5137 30.6354 22.4518 30.5215 22.4258 30.4043C22.4062 30.2871 22.3965 30.1927 22.3965 30.1211V22.582C22.3965 22.3932 22.3509 22.2305 22.2598 22.0938C22.1751 21.9505 22.0286 21.8789 21.8203 21.8789C21.7096 21.8789 21.6152 21.8984 21.5371 21.9375C21.459 21.9766 21.3743 22.0319 21.2832 22.1035L21.0781 21.8594C21.2279 21.7357 21.3939 21.6152 21.5762 21.498C21.765 21.3743 21.9668 21.2669 22.1816 21.1758C22.3965 21.0846 22.6276 21.0098 22.875 20.9512C23.1224 20.8926 23.3828 20.8633 23.6562 20.8633C24.0794 20.8633 24.4082 20.9219 24.6426 21.0391C24.877 21.1497 25.0495 21.2897 25.1602 21.459C25.2708 21.6217 25.3359 21.7975 25.3555 21.9863C25.3815 22.1751 25.3945 22.3411 25.3945 22.4844V30.1211ZM22.0938 18.6367C22.0938 18.4544 22.1328 18.2819 22.2109 18.1191C22.2956 17.9499 22.4095 17.8034 22.5527 17.6797C22.7025 17.556 22.8717 17.4583 23.0605 17.3867C23.2559 17.3151 23.4674 17.2793 23.6953 17.2793C23.9167 17.2793 24.1217 17.3151 24.3105 17.3867C24.5059 17.4583 24.6751 17.556 24.8184 17.6797C24.9616 17.8034 25.0723 17.9499 25.1504 18.1191C25.235 18.2819 25.2773 18.4544 25.2773 18.6367C25.2773 18.8255 25.235 19.0013 25.1504 19.1641C25.0723 19.3268 24.9616 19.4701 24.8184 19.5938C24.6751 19.7109 24.5059 19.8053 24.3105 19.877C24.1217 19.9486 23.9167 19.9844 23.6953 19.9844C23.4674 19.9844 23.2559 19.9486 23.0605 19.877C22.8717 19.8053 22.7025 19.7109 22.5527 19.5938C22.4095 19.4701 22.2956 19.3268 22.2109 19.1641C22.1328 19.0013 22.0938 18.8255 22.0938 18.6367ZM30.9805 22.9238C31.2279 22.5462 31.4915 22.2044 31.7715 21.8984C31.8887 21.7682 32.0156 21.6413 32.1523 21.5176C32.2891 21.3939 32.429 21.2832 32.5723 21.1855C32.722 21.0879 32.875 21.0098 33.0312 20.9512C33.1875 20.8926 33.3438 20.8633 33.5 20.8633C33.832 20.8633 34.0924 20.9642 34.2812 21.166C34.4701 21.3613 34.5645 21.638 34.5645 21.9961C34.5645 22.2174 34.5449 22.4323 34.5059 22.6406C34.4733 22.8424 34.4049 23.0898 34.3008 23.3828H34.0273C33.9883 23.181 33.8971 23.015 33.7539 22.8848C33.6107 22.748 33.4023 22.6797 33.1289 22.6797C32.9271 22.6797 32.7285 22.7188 32.5332 22.7969C32.3379 22.8685 32.1458 22.9596 31.957 23.0703C31.7747 23.181 31.599 23.3014 31.4297 23.4316C31.2669 23.5618 31.1172 23.6855 30.9805 23.8027V30.1406C30.9805 30.2253 30.9674 30.3262 30.9414 30.4434C30.9154 30.5605 30.8503 30.6712 30.7461 30.7754C30.6484 30.8796 30.4987 30.9674 30.2969 31.0391C30.1016 31.1172 29.8314 31.1562 29.4863 31.1562C29.1413 31.1562 28.8678 31.1139 28.666 31.0293C28.4707 30.9512 28.321 30.8568 28.2168 30.7461C28.1126 30.6354 28.0475 30.5215 28.0215 30.4043C27.9954 30.2871 27.9824 30.1927 27.9824 30.1211V22.582C27.9824 22.3932 27.9368 22.2305 27.8457 22.0938C27.7611 21.9505 27.6146 21.8789 27.4062 21.8789C27.2956 21.8789 27.2012 21.8984 27.123 21.9375C27.0449 21.9766 26.9603 22.0319 26.8691 22.1035L26.6641 21.8594C26.8138 21.7357 26.9798 21.6152 27.1621 21.498C27.3509 21.3743 27.5527 21.2669 27.7676 21.1758C27.9824 21.0846 28.2135 21.0098 28.4609 20.9512C28.7083 20.8926 28.9688 20.8633 29.2422 20.8633C29.5221 20.8633 29.7598 20.9023 29.9551 20.9805C30.1569 21.0521 30.3197 21.1497 30.4434 21.2734C30.5736 21.3906 30.6745 21.5241 30.7461 21.6738C30.8177 21.8236 30.8698 21.9766 30.9023 22.1328C30.9414 22.2826 30.9642 22.429 30.9707 22.5723C30.9772 22.709 30.9805 22.8262 30.9805 22.9238ZM38.8516 32.416C39.112 32.416 39.3691 32.3672 39.623 32.2695C39.877 32.1784 40.1016 32.0221 40.2969 31.8008C40.4987 31.5859 40.6615 31.3027 40.7852 30.9512C40.9089 30.5996 40.9707 30.1699 40.9707 29.6621C40.9707 29.1152 40.834 28.5846 40.5605 28.0703C40.2936 27.556 39.9551 27.0514 39.5449 26.5566C39.1413 26.0553 38.7018 25.5605 38.2266 25.0723C37.7578 24.5775 37.3184 24.0762 36.9082 23.5684C36.5046 23.054 36.166 22.5267 35.8926 21.9863C35.6257 21.4395 35.4922 20.8698 35.4922 20.2773C35.4922 19.6849 35.5996 19.151 35.8145 18.6758C36.0358 18.194 36.332 17.7871 36.7031 17.4551C37.0807 17.1165 37.5169 16.8561 38.0117 16.6738C38.513 16.4915 39.0469 16.4004 39.6133 16.4004C40.2188 16.4004 40.7559 16.4655 41.2246 16.5957C41.6999 16.7194 42.1003 16.8919 42.4258 17.1133C42.7578 17.3281 43.0085 17.5853 43.1777 17.8848C43.347 18.1777 43.4316 18.4902 43.4316 18.8223C43.4316 18.9785 43.4089 19.1413 43.3633 19.3105C43.3177 19.4733 43.2461 19.623 43.1484 19.7598C43.0508 19.8965 42.9271 20.0104 42.7773 20.1016C42.6276 20.1927 42.4518 20.2383 42.25 20.2383C42.0091 20.2383 41.8301 20.1667 41.7129 20.0234C41.6022 19.8737 41.5176 19.6914 41.459 19.4766C41.4069 19.2617 41.3613 19.0273 41.3223 18.7734C41.2832 18.513 41.2214 18.2754 41.1367 18.0605C41.0521 17.8457 40.9251 17.6667 40.7559 17.5234C40.5866 17.3737 40.3392 17.2988 40.0137 17.2988C39.8379 17.2988 39.6621 17.3379 39.4863 17.416C39.3171 17.4941 39.1608 17.6146 39.0176 17.7773C38.8809 17.9336 38.7702 18.1354 38.6855 18.3828C38.6009 18.6302 38.5586 18.9232 38.5586 19.2617C38.5586 19.6523 38.64 20.0332 38.8027 20.4043C38.9655 20.7754 39.1803 21.1432 39.4473 21.5078C39.7142 21.8659 40.0169 22.2272 40.3555 22.5918C40.7005 22.9499 41.0488 23.3145 41.4004 23.6855C41.7585 24.0501 42.1068 24.4277 42.4453 24.8184C42.7904 25.2025 43.0964 25.6029 43.3633 26.0195C43.6302 26.4362 43.8451 26.8724 44.0078 27.3281C44.1706 27.7839 44.252 28.2624 44.252 28.7637C44.252 29.4993 44.1087 30.1569 43.8223 30.7363C43.5423 31.3092 43.1582 31.791 42.6699 32.1816C42.1882 32.5788 41.6217 32.8815 40.9707 33.0898C40.3197 33.2982 39.6263 33.4023 38.8906 33.4023C38.2266 33.4023 37.6374 33.3177 37.123 33.1484C36.6152 32.9857 36.1855 32.7676 35.834 32.4941C35.4824 32.2207 35.2155 31.9082 35.0332 31.5566C34.8574 31.2116 34.7695 30.8535 34.7695 30.4824C34.7695 30.3262 34.7923 30.1602 34.8379 29.9844C34.89 29.8021 34.9616 29.6361 35.0527 29.4863C35.1504 29.3366 35.2708 29.2129 35.4141 29.1152C35.5573 29.0111 35.7233 28.959 35.9121 28.959C36.1074 28.959 36.2637 29.0078 36.3809 29.1055C36.5046 29.2031 36.6022 29.3333 36.6738 29.4961C36.7454 29.6589 36.804 29.8444 36.8496 30.0527C36.8952 30.2611 36.944 30.4727 36.9961 30.6875C37.0482 30.9023 37.1133 31.1139 37.1914 31.3223C37.2695 31.5306 37.377 31.7161 37.5137 31.8789C37.6504 32.0417 37.8262 32.1719 38.041 32.2695C38.2559 32.3672 38.526 32.416 38.8516 32.416ZM50.502 25.9414C50.502 25.7786 50.4499 25.6549 50.3457 25.5703C50.2415 25.4857 50.1081 25.4434 49.9453 25.4434C49.7174 25.4434 49.4993 25.4954 49.291 25.5996C49.0892 25.7038 48.9102 25.8568 48.7539 26.0586C48.5977 26.2604 48.474 26.5111 48.3828 26.8105C48.2917 27.1035 48.2461 27.4453 48.2461 27.8359C48.2461 28.2135 48.2721 28.526 48.3242 28.7734C48.3828 29.0208 48.4577 29.2194 48.5488 29.3691C48.6465 29.5124 48.7572 29.6133 48.8809 29.6719C49.0046 29.7305 49.1348 29.7598 49.2715 29.7598C49.4408 29.7598 49.6003 29.7174 49.75 29.6328C49.8997 29.5417 50.0299 29.4277 50.1406 29.291C50.2513 29.1543 50.3392 29.0013 50.4043 28.832C50.4694 28.6628 50.502 28.4935 50.502 28.3242V25.9414ZM48.9492 21.6641C48.7279 21.6641 48.5228 21.6901 48.334 21.7422C48.1452 21.7943 47.9824 21.8594 47.8457 21.9375C47.709 22.0156 47.6016 22.1035 47.5234 22.2012C47.4453 22.2923 47.4062 22.3802 47.4062 22.4648C47.4062 22.5625 47.4551 22.6341 47.5527 22.6797C47.6569 22.7188 47.7708 22.7676 47.8945 22.8262C48.0182 22.8783 48.1289 22.9564 48.2266 23.0605C48.3307 23.1582 48.3828 23.3112 48.3828 23.5195C48.3828 23.6562 48.3535 23.7832 48.2949 23.9004C48.2428 24.0111 48.168 24.112 48.0703 24.2031C47.9792 24.2878 47.8685 24.3561 47.7383 24.4082C47.6146 24.4538 47.4844 24.4766 47.3477 24.4766C46.9831 24.4766 46.6868 24.3529 46.459 24.1055C46.2376 23.8581 46.127 23.5293 46.127 23.1191C46.127 22.722 46.2311 22.3835 46.4395 22.1035C46.6478 21.8171 46.918 21.5827 47.25 21.4004C47.5885 21.2181 47.9694 21.0846 48.3926 21C48.8158 20.9089 49.2389 20.8633 49.6621 20.8633C50.1699 20.8633 50.6549 20.9186 51.1172 21.0293C51.5794 21.14 51.9863 21.3158 52.3379 21.5566C52.696 21.7975 52.9792 22.1035 53.1875 22.4746C53.4023 22.8457 53.5098 23.2949 53.5098 23.8223V29.3398C53.5098 29.3984 53.513 29.4635 53.5195 29.5352C53.526 29.6068 53.5423 29.6719 53.5684 29.7305C53.5944 29.7891 53.6335 29.8379 53.6855 29.877C53.7376 29.916 53.8125 29.9355 53.9102 29.9355C54.0273 29.9355 54.1348 29.8932 54.2324 29.8086C54.3366 29.7174 54.4277 29.6263 54.5059 29.5352L54.75 29.7402C54.6523 29.877 54.5352 30.0267 54.3984 30.1895C54.2617 30.3522 54.0957 30.5052 53.9004 30.6484C53.7051 30.7917 53.4772 30.9121 53.2168 31.0098C52.9564 31.1074 52.6602 31.1562 52.3281 31.1562C51.918 31.1562 51.5534 31.0358 51.2344 30.7949C50.9154 30.5475 50.707 30.1699 50.6094 29.6621C50.401 29.9421 50.1829 30.1764 49.9551 30.3652C49.7337 30.554 49.5059 30.707 49.2715 30.8242C49.0371 30.9414 48.7995 31.026 48.5586 31.0781C48.3242 31.1302 48.0866 31.1562 47.8457 31.1562C47.5332 31.1562 47.2305 31.1074 46.9375 31.0098C46.6445 30.9121 46.3809 30.7591 46.1465 30.5508C45.9186 30.3359 45.7331 30.0592 45.5898 29.7207C45.4531 29.3822 45.3848 28.9688 45.3848 28.4805C45.3848 27.888 45.502 27.403 45.7363 27.0254C45.9707 26.6478 46.2767 26.332 46.6543 26.0781C47.0384 25.8177 47.4714 25.5964 47.9531 25.4141C48.4414 25.2318 48.9395 25.0397 49.4473 24.8379C49.8249 24.6882 50.0983 24.4668 50.2676 24.1738C50.4434 23.8743 50.5312 23.5684 50.5312 23.2559C50.5312 22.7741 50.388 22.39 50.1016 22.1035C49.8216 21.8105 49.4375 21.6641 48.9492 21.6641ZM55.8047 22.6992C55.7656 22.4388 55.7005 22.237 55.6094 22.0938C55.5247 21.9505 55.3783 21.8789 55.1699 21.8789C55.0592 21.8789 54.9616 21.8984 54.877 21.9375C54.7988 21.9766 54.7142 22.0319 54.623 22.1035L54.4277 21.8594C54.5775 21.7357 54.7435 21.6152 54.9258 21.498C55.1146 21.3743 55.3164 21.2669 55.5312 21.1758C55.7461 21.0846 55.9772 21.0098 56.2246 20.9512C56.472 20.8926 56.7324 20.8633 57.0059 20.8633C57.3965 20.8633 57.7122 20.9316 57.9531 21.0684C58.194 21.1986 58.3828 21.3646 58.5195 21.5664C58.6628 21.7617 58.7637 21.9733 58.8223 22.2012C58.8809 22.429 58.9232 22.6341 58.9492 22.8164C59.1901 24.7891 59.4603 26.2832 59.7598 27.2988C60.0592 28.3145 60.4141 28.8223 60.8242 28.8223C61.0521 28.8223 61.2702 28.6986 61.4785 28.4512C61.6934 28.2038 61.8789 27.8652 62.0352 27.4355C62.1979 27.0059 62.3281 26.5046 62.4258 25.9316C62.5234 25.3587 62.5723 24.7467 62.5723 24.0957C62.5723 23.666 62.543 23.3047 62.4844 23.0117C62.4258 22.7122 62.3607 22.4616 62.2891 22.2598C62.2174 22.0579 62.1523 21.8919 62.0938 21.7617C62.0352 21.625 62.0059 21.5046 62.0059 21.4004C62.0059 21.3027 62.0449 21.2214 62.123 21.1562C62.2012 21.0911 62.2923 21.0358 62.3965 20.9902C62.5072 20.9447 62.6178 20.9121 62.7285 20.8926C62.8457 20.873 62.9401 20.8633 63.0117 20.8633C63.2005 20.8633 63.3372 20.8893 63.4219 20.9414C63.5065 20.9935 63.5749 21.0944 63.627 21.2441C63.6855 21.4329 63.7246 21.6836 63.7441 21.9961C63.7702 22.3021 63.7832 22.6309 63.7832 22.9824C63.7832 23.4837 63.7474 24.0339 63.6758 24.6328C63.6107 25.2318 63.5065 25.834 63.3633 26.4395C63.2266 27.0449 63.0508 27.6309 62.8359 28.1973C62.6211 28.7637 62.3639 29.2682 62.0645 29.7109C61.7715 30.1471 61.4362 30.4987 61.0586 30.7656C60.6875 31.026 60.2708 31.1562 59.8086 31.1562C59.2682 31.1562 58.7995 31 58.4023 30.6875C58.0052 30.375 57.6667 29.9681 57.3867 29.4668C57.1133 28.9655 56.8854 28.4023 56.7031 27.7773C56.5208 27.1523 56.3711 26.5273 56.2539 25.9023C56.1432 25.2708 56.0521 24.6751 55.9805 24.1152C55.9154 23.5488 55.8568 23.0768 55.8047 22.6992ZM71.0391 25.6973C71.0391 25.6257 71.0391 25.4824 71.0391 25.2676C71.0391 25.0462 71.0326 24.7956 71.0195 24.5156C71.0065 24.2292 70.9837 23.9264 70.9512 23.6074C70.9186 23.2884 70.8665 22.9922 70.7949 22.7188C70.6387 22.5169 70.4629 22.3379 70.2676 22.1816C70.0788 22.0189 69.8346 21.9375 69.5352 21.9375C69.0273 21.9375 68.653 22.2695 68.4121 22.9336C68.1777 23.5977 68.0605 24.6263 68.0605 26.0195C68.0605 26.6315 68.0866 27.1914 68.1387 27.6992C68.1973 28.207 68.2819 28.6432 68.3926 29.0078C68.5098 29.3724 68.6562 29.6556 68.832 29.8574C69.0143 30.0592 69.2292 30.1602 69.4766 30.1602C70.5182 30.1602 71.0391 28.6725 71.0391 25.6973ZM70.9219 21.4004C70.7982 20.7493 70.6257 20.1439 70.4043 19.584C70.1829 19.0176 69.916 18.5293 69.6035 18.1191C69.2975 17.709 68.946 17.3867 68.5488 17.1523C68.1582 16.918 67.735 16.8008 67.2793 16.8008C67.0189 16.8008 66.7812 16.8333 66.5664 16.8984C66.3581 16.9635 66.1758 17.0417 66.0195 17.1328C65.8633 17.2174 65.7331 17.3021 65.6289 17.3867C65.5312 17.4648 65.4596 17.5234 65.4141 17.5625L65.1602 17.2207C65.3164 17.0189 65.5052 16.8301 65.7266 16.6543C65.9544 16.4785 66.2018 16.3288 66.4688 16.2051C66.7357 16.0814 67.0156 15.9837 67.3086 15.9121C67.6081 15.8405 67.9043 15.8047 68.1973 15.8047C69.1608 15.8047 70.0072 16.0163 70.7363 16.4395C71.4655 16.8561 72.0742 17.4486 72.5625 18.2168C73.0508 18.985 73.4186 19.9128 73.666 21C73.9134 22.0872 74.0371 23.2949 74.0371 24.623C74.0371 25.6973 73.9264 26.6413 73.7051 27.4551C73.4902 28.2689 73.181 28.9525 72.7773 29.5059C72.3737 30.0527 71.8822 30.4661 71.3027 30.7461C70.7298 31.0195 70.082 31.1562 69.3594 31.1562C68.8581 31.1562 68.347 31.0684 67.8262 30.8926C67.3118 30.7103 66.8431 30.4173 66.4199 30.0137C66.0033 29.61 65.6615 29.0827 65.3945 28.4316C65.1276 27.7741 64.9941 26.9701 64.9941 26.0195C64.9941 25.1992 65.1081 24.4701 65.3359 23.832C65.5703 23.194 65.8828 22.6569 66.2734 22.2207C66.6641 21.778 67.1165 21.4427 67.6309 21.2148C68.1452 20.9805 68.6888 20.8633 69.2617 20.8633C69.4831 20.8633 69.6816 20.8828 69.8574 20.9219C70.0332 20.9544 70.1862 20.9967 70.3164 21.0488C70.4466 21.1009 70.5605 21.1595 70.6582 21.2246C70.7559 21.2832 70.8438 21.3418 70.9219 21.4004ZM75.2871 26C75.2871 25.1471 75.4108 24.4017 75.6582 23.7637C75.9056 23.1191 76.2344 22.582 76.6445 22.1523C77.0612 21.7227 77.543 21.4004 78.0898 21.1855C78.6367 20.9707 79.2096 20.8633 79.8086 20.8633C80.4076 20.8633 80.9805 20.9642 81.5273 21.166C82.0742 21.3613 82.5527 21.6641 82.9629 22.0742C83.3796 22.4844 83.7116 23.0052 83.959 23.6367C84.2064 24.2617 84.3301 25.0039 84.3301 25.8633C84.3301 26.7161 84.2064 27.4714 83.959 28.1289C83.7116 28.7865 83.3796 29.3398 82.9629 29.7891C82.5527 30.2383 82.0742 30.5801 81.5273 30.8145C80.9805 31.0423 80.4076 31.1562 79.8086 31.1562C79.2096 31.1562 78.6367 31.0488 78.0898 30.834C77.543 30.6126 77.0612 30.2871 76.6445 29.8574C76.2344 29.4277 75.9056 28.8906 75.6582 28.2461C75.4108 27.6016 75.2871 26.8529 75.2871 26ZM81.293 25.9023C81.293 25.3815 81.2734 24.8802 81.2344 24.3984C81.2018 23.9102 81.1335 23.4772 81.0293 23.0996C80.9251 22.722 80.7754 22.4225 80.5801 22.2012C80.3848 21.9733 80.1276 21.8594 79.8086 21.8594C79.4896 21.8594 79.2324 21.9798 79.0371 22.2207C78.8418 22.4551 78.6921 22.7676 78.5879 23.1582C78.4837 23.5423 78.4154 23.9818 78.3828 24.4766C78.3503 24.9714 78.334 25.4792 78.334 26C78.334 26.5208 78.3503 27.0319 78.3828 27.5332C78.4154 28.028 78.4837 28.4707 78.5879 28.8613C78.6921 29.252 78.8418 29.5677 79.0371 29.8086C79.2324 30.043 79.4896 30.1602 79.8086 30.1602C80.1276 30.1602 80.3848 30.0365 80.5801 29.7891C80.7754 29.5417 80.9251 29.2161 81.0293 28.8125C81.1335 28.4089 81.2018 27.9531 81.2344 27.4453C81.2734 26.9375 81.293 26.4232 81.293 25.9023ZM86.1465 29.5156C86.1465 29.2878 86.1888 29.0729 86.2734 28.8711C86.3581 28.6693 86.472 28.4935 86.6152 28.3438C86.765 28.194 86.9408 28.0768 87.1426 27.9922C87.3444 27.901 87.5592 27.8555 87.7871 27.8555C88.015 27.8555 88.2298 27.901 88.4316 27.9922C88.6335 28.0768 88.8092 28.194 88.959 28.3438C89.1087 28.4935 89.2259 28.6693 89.3105 28.8711C89.4017 29.0729 89.4473 29.2878 89.4473 29.5156C89.4473 29.75 89.4017 29.9681 89.3105 30.1699C89.2259 30.3652 89.1087 30.5378 88.959 30.6875C88.8092 30.8307 88.6335 30.9447 88.4316 31.0293C88.2298 31.1139 88.015 31.1562 87.7871 31.1562C87.5592 31.1562 87.3444 31.1139 87.1426 31.0293C86.9408 30.9447 86.765 30.8307 86.6152 30.6875C86.472 30.5378 86.3581 30.3652 86.2734 30.1699C86.1888 29.9681 86.1465 29.75 86.1465 29.5156ZM100.404 29.3008C100.404 29.3594 100.408 29.4245 100.414 29.4961C100.421 29.5612 100.437 29.6263 100.463 29.6914C100.489 29.75 100.528 29.7988 100.58 29.8379C100.632 29.877 100.707 29.8965 100.805 29.8965C100.928 29.8965 101.039 29.8542 101.137 29.7695C101.234 29.6784 101.326 29.5872 101.41 29.4961L101.645 29.7012C101.547 29.8379 101.423 29.9909 101.273 30.1602C101.13 30.3229 100.954 30.4792 100.746 30.6289C100.538 30.7786 100.3 30.9023 100.033 31C99.7663 31.1042 99.4635 31.1562 99.125 31.1562C98.8385 31.1562 98.5879 31.1172 98.373 31.0391C98.1647 30.9674 97.9857 30.8698 97.8359 30.7461C97.6927 30.6159 97.5853 30.4661 97.5137 30.2969C97.4421 30.1211 97.4062 29.9355 97.4062 29.7402V29.3008C97.0807 29.6523 96.7389 29.9616 96.3809 30.2285C96.2246 30.3457 96.0586 30.4596 95.8828 30.5703C95.707 30.681 95.5247 30.7819 95.3359 30.873C95.1471 30.9577 94.9518 31.026 94.75 31.0781C94.5482 31.1302 94.3464 31.1562 94.1445 31.1562C93.7539 31.1562 93.4186 31.0879 93.1387 30.9512C92.8652 30.8079 92.6439 30.6224 92.4746 30.3945C92.3053 30.1667 92.1816 29.9095 92.1035 29.623C92.0254 29.3366 91.9863 29.0501 91.9863 28.7637V22.7188C91.9863 22.6602 91.9831 22.5983 91.9766 22.5332C91.9701 22.4616 91.9538 22.3965 91.9277 22.3379C91.9017 22.2728 91.8626 22.2207 91.8105 22.1816C91.7585 22.1426 91.6836 22.123 91.5859 22.123C91.4688 22.123 91.3581 22.1686 91.2539 22.2598C91.1562 22.3444 91.0684 22.4323 90.9902 22.5234L90.7461 22.3184C90.8438 22.1816 90.9642 22.0319 91.1074 21.8691C91.2572 21.6999 91.4362 21.5404 91.6445 21.3906C91.8529 21.2409 92.0905 21.1172 92.3574 21.0195C92.6309 20.9154 92.9336 20.8633 93.2656 20.8633C93.5521 20.8633 93.8027 20.9023 94.0176 20.9805C94.2324 21.0521 94.4115 21.153 94.5547 21.2832C94.6979 21.4069 94.8053 21.5566 94.877 21.7324C94.9486 21.9017 94.9844 22.084 94.9844 22.2793V28.8027C94.9844 28.8939 94.9974 28.9883 95.0234 29.0859C95.056 29.1771 95.0983 29.2617 95.1504 29.3398C95.209 29.418 95.2806 29.4831 95.3652 29.5352C95.4499 29.5807 95.5508 29.6035 95.668 29.6035C95.8568 29.6035 96.0456 29.5547 96.2344 29.457C96.4232 29.3594 96.5957 29.2454 96.752 29.1152C96.9082 28.9785 97.0417 28.8451 97.1523 28.7148C97.2695 28.5846 97.3542 28.487 97.4062 28.4219V22.7188C97.4062 22.6602 97.403 22.5983 97.3965 22.5332C97.39 22.4616 97.3737 22.3965 97.3477 22.3379C97.3216 22.2728 97.2826 22.2207 97.2305 22.1816C97.1784 22.1426 97.1035 22.123 97.0059 22.123C96.8887 22.123 96.778 22.1686 96.6738 22.2598C96.5762 22.3444 96.4883 22.4323 96.4102 22.5234L96.166 22.3184C96.2637 22.1816 96.3841 22.0319 96.5273 21.8691C96.6771 21.6999 96.8561 21.5404 97.0645 21.3906C97.2728 21.2409 97.5104 21.1172 97.7773 21.0195C98.0508 20.9154 98.3535 20.8633 98.6855 20.8633C98.972 20.8633 99.2227 20.9023 99.4375 20.9805C99.6523 21.0521 99.8314 21.153 99.9746 21.2832C100.118 21.4069 100.225 21.5566 100.297 21.7324C100.368 21.9017 100.404 22.084 100.404 22.2793V29.3008ZM106.498 22.5039C106.563 22.4193 106.618 22.3281 106.664 22.2305C106.716 22.1328 106.742 22.0417 106.742 21.957C106.742 21.8333 106.645 21.7454 106.449 21.6934C106.254 21.6413 105.893 21.6152 105.365 21.6152C105.04 21.6152 104.77 21.6543 104.555 21.7324C104.34 21.8105 104.161 21.9082 104.018 22.0254C103.881 22.1361 103.767 22.2598 103.676 22.3965C103.591 22.5332 103.516 22.6602 103.451 22.7773C103.386 22.888 103.321 22.9824 103.256 23.0605C103.197 23.1387 103.119 23.1777 103.021 23.1777C102.911 23.1777 102.813 23.1419 102.729 23.0703C102.65 22.9987 102.585 22.9108 102.533 22.8066C102.481 22.696 102.442 22.5788 102.416 22.4551C102.39 22.3249 102.377 22.2012 102.377 22.084C102.377 21.9082 102.452 21.7454 102.602 21.5957C102.751 21.446 102.969 21.319 103.256 21.2148C103.542 21.1042 103.891 21.0195 104.301 20.9609C104.717 20.8958 105.193 20.8633 105.727 20.8633C106.592 20.8633 107.296 20.8991 107.836 20.9707C108.383 21.0423 108.809 21.14 109.115 21.2637C109.421 21.3809 109.63 21.5241 109.74 21.6934C109.851 21.8626 109.906 22.0449 109.906 22.2402C109.906 22.3444 109.88 22.4616 109.828 22.5918C109.783 22.7155 109.724 22.8359 109.652 22.9531C109.587 23.0703 109.519 23.181 109.447 23.2852C109.382 23.3828 109.333 23.4544 109.301 23.5L105.238 29.7207C105.219 29.7533 105.186 29.8053 105.141 29.877C105.102 29.9421 105.082 30.0169 105.082 30.1016C105.082 30.1536 105.098 30.1992 105.131 30.2383C105.17 30.2773 105.238 30.3099 105.336 30.3359C105.44 30.362 105.587 30.3815 105.775 30.3945C105.964 30.401 106.212 30.4043 106.518 30.4043C106.908 30.4043 107.23 30.362 107.484 30.2773C107.745 30.1927 107.956 30.0853 108.119 29.9551C108.282 29.8249 108.412 29.6882 108.51 29.5449C108.607 29.3952 108.692 29.2552 108.764 29.125C108.835 28.9948 108.904 28.8874 108.969 28.8027C109.04 28.7181 109.132 28.6758 109.242 28.6758C109.353 28.6758 109.451 28.7181 109.535 28.8027C109.62 28.8809 109.691 28.9818 109.75 29.1055C109.809 29.2292 109.851 29.3626 109.877 29.5059C109.91 29.6491 109.926 29.7793 109.926 29.8965C109.926 30.0723 109.848 30.2383 109.691 30.3945C109.535 30.5443 109.298 30.6777 108.979 30.7949C108.66 30.9056 108.253 30.9935 107.758 31.0586C107.27 31.1237 106.69 31.1562 106.02 31.1562C105.297 31.1562 104.682 31.127 104.174 31.0684C103.666 31.0098 103.253 30.9251 102.934 30.8145C102.615 30.6973 102.383 30.5508 102.24 30.375C102.097 30.1992 102.025 29.9941 102.025 29.7598C102.025 29.571 102.068 29.3854 102.152 29.2031C102.243 29.0143 102.374 28.7995 102.543 28.5586L106.498 22.5039Z" fill="black"/>
</svg>
